<svg width="16" height="16" viewBox="0 0 16 16" fill="none" xmlns="http://www.w3.org/2000/svg">
<path d="M15.6444 8.17788C15.6444 7.64455 15.5556 7.02233 15.4667 6.57788H8V9.68899H12.2667C12.0889 10.6668 11.5556 11.4668 10.6667 12.089V14.1334H13.3333C14.8444 12.7112 15.6444 10.5779 15.6444 8.17788Z" fill="#4285F4"/>
<path d="M8.00003 16.0001C10.1334 16.0001 12 15.289 13.3334 14.0445L10.6667 12.089C9.95558 12.5334 9.06669 12.889 8.00003 12.889C5.95558 12.889 4.1778 11.4668 3.55558 9.6001H0.888916V11.5557C2.13336 14.2223 4.88892 16.0001 8.00003 16.0001Z" fill="#34A853"/>
<path d="M3.55556 9.511C3.37778 9.06656 3.28889 8.53322 3.28889 7.99989C3.28889 7.46656 3.37778 6.93322 3.55556 6.48878V4.44434H0.888889C0.355556 5.511 0 6.75545 0 7.99989C0 9.24434 0.266667 10.4888 0.888889 11.5554L3.55556 9.511Z" fill="#FBBC05"/>
<path d="M8.00003 3.2C9.15558 3.2 10.2222 3.64444 11.0222 4.35556L13.3334 2.04444C12 0.8 10.1334 0 8.00003 0C4.88892 0 2.13336 1.77778 0.888916 4.44444L3.55558 6.48889C4.1778 4.62222 5.95558 3.2 8.00003 3.2Z" fill="#EA4335"/>
</svg>
