<svg width="20" height="16" viewBox="0 0 20 16" fill="none" xmlns="http://www.w3.org/2000/svg">
<g clip-path="url(#clip0)">
<path d="M6.22181 16.0011C13.6864 16.0011 17.7709 9.84062 17.7709 4.50729C17.7709 4.33397 17.7709 4.16066 17.763 3.98734C18.5546 3.41226 19.2433 2.70325 19.7895 1.8997C19.0454 2.2227 18.2617 2.44328 17.4543 2.53781C18.3013 2.03363 18.9346 1.23796 19.2354 0.300492C18.4359 0.773165 17.5651 1.10404 16.6548 1.27735C15.1192 -0.353373 12.5465 -0.432152 10.908 1.10404C9.85516 2.08877 9.40396 3.56194 9.73642 4.9642C6.48303 4.79877 3.43545 3.26258 1.37735 0.741654C0.3008 2.58508 0.846989 4.94845 2.63596 6.13013C1.98686 6.11438 1.36152 5.94106 0.791579 5.62595C0.791579 5.6417 0.791579 5.65746 0.791579 5.67321C0.791579 7.59542 2.15309 9.24978 4.05288 9.63579C3.45128 9.80123 2.82594 9.82486 2.21642 9.70669C2.74678 11.3532 4.27453 12.4797 6.00808 12.5112C4.56741 13.6378 2.79427 14.2444 0.965726 14.2444C0.641179 14.2444 0.316632 14.2207 0 14.1892C1.86021 15.3788 4.01331 16.0011 6.22181 16.0011Z" fill="white"/>
</g>
<defs>
<clipPath id="clip0">
<rect width="19.7895" height="16" fill="white"/>
</clipPath>
</defs>
</svg>
